<svg t="1582017164891" class="icon" viewBox="0 0 1024 1024" version="1.1" xmlns="http://www.w3.org/2000/svg" p-id="33020" width="128" height="128"><path d="M800 0 0 0l0 198.4 800 0L800 0 800 0zM409.6 147.2C384 147.2 364.8 128 364.8 108.8 364.8 83.2 384 64 409.6 64c25.6 0 44.8 19.2 44.8 38.4C454.4 128 435.2 147.2 409.6 147.2L409.6 147.2zM550.4 147.2C524.8 147.2 505.6 128 505.6 108.8 505.6 83.2 524.8 64 550.4 64 576 64 595.2 83.2 595.2 102.4 595.2 128 576 147.2 550.4 147.2L550.4 147.2zM691.2 147.2c-25.6 0-44.8-19.2-44.8-38.4 0-25.6 19.2-38.4 44.8-38.4 25.6 0 44.8 19.2 44.8 38.4C736 128 716.8 147.2 691.2 147.2L691.2 147.2z" p-id="33021"></path><path d="M800 518.4 800 320 0 320l0 198.4L800 518.4 800 518.4zM691.2 377.6c25.6 0 44.8 19.2 44.8 38.4 0 25.6-19.2 38.4-44.8 38.4-25.6 0-44.8-19.2-44.8-38.4S665.6 377.6 691.2 377.6L691.2 377.6zM550.4 377.6c25.6 0 44.8 19.2 44.8 38.4 0 25.6-19.2 38.4-44.8 38.4C524.8 460.8 505.6 441.6 505.6 416 505.6 396.8 524.8 377.6 550.4 377.6L550.4 377.6zM409.6 377.6c25.6 0 44.8 19.2 44.8 38.4 0 25.6-19.2 38.4-44.8 38.4C384 454.4 364.8 435.2 364.8 416S384 377.6 409.6 377.6L409.6 377.6z" p-id="33022"></path><path d="M780.8 710.4c-12.8 0-25.6 12.8-25.6 25.6l0 115.2c0 12.8 12.8 25.6 25.6 25.6l108.8 0c12.8 0 25.6-12.8 25.6-25.6 0-12.8-12.8-25.6-25.6-25.6l-83.2 0 0-89.6C806.4 723.2 800 710.4 780.8 710.4L780.8 710.4z" p-id="33023"></path><path d="M806.4 633.6c-19.2 0-38.4 6.4-57.6 6.4L0 640l0 198.4 595.2 0 38.4 44.8 76.8-96-51.2 0c19.2-64 76.8-108.8 147.2-108.8 83.2 0 153.6 64 153.6 147.2 0 83.2-70.4 147.2-153.6 147.2-44.8 0-89.6-19.2-115.2-51.2-6.4-12.8-25.6-12.8-38.4 0-12.8 6.4-12.8 25.6 0 32 38.4 44.8 96 70.4 160 70.4 115.2 0 204.8-89.6 204.8-198.4C1011.2 716.8 921.6 633.6 806.4 633.6L806.4 633.6zM409.6 774.4c-25.6 0-44.8-19.2-44.8-38.4 0-25.6 19.2-38.4 44.8-38.4 25.6 0 44.8 19.2 44.8 38.4C454.4 761.6 435.2 774.4 409.6 774.4L409.6 774.4zM505.6 736c0-25.6 19.2-38.4 44.8-38.4 25.6 0 44.8 19.2 44.8 38.4 0 25.6-19.2 38.4-44.8 38.4C524.8 774.4 505.6 761.6 505.6 736L505.6 736z" p-id="33024"></path></svg>