<svg t="1580975991140" class="icon" viewBox="0 0 1024 1024" version="1.1" xmlns="http://www.w3.org/2000/svg" p-id="1119" width="128" height="128"><path d="M983.84 529.992l-455.7-455.7c-8.9-8.9-23.3-8.9-32.2 0l-341.5 341.5-0.6 0.6-113.7 113.6c-8.9 8.9-8.9 23.3 0 32.2 8.9 8.9 23.3 8.9 32.2 0l75-75v377.9c0 50.3 40.9 91.1 91.1 91.1h159.5c12.6 0 22.8-10.2 22.8-22.8v-205.1h205.1c12.6 0 22.8-10.2 22.8-22.8s-10.2-22.8-22.8-22.8h-227.9c-12.6 0-22.8 10.2-22.8 22.8v205.1h-136.7c-25.1 0-45.6-20.4-45.6-45.6v-423.5l319-319 439.8 439.7c4.5 4.5 10.3 6.7 16.1 6.7 5.8 0 11.7-2.2 16.1-6.7 8.9-8.9 8.9-23.3 0-32.2z m-130 61.7c-12.6 0-22.8 10.2-22.8 22.8v250.7c0 25.1-20.4 45.6-45.6 45.6h-159.5c-12.6 0-22.8 10.2-22.8 22.8 0 12.6 10.2 22.8 22.8 22.8h159.5c50.3 0 91.1-40.9 91.1-91.1v-250.7c0.1-12.7-10.1-22.9-22.7-22.9z" p-id="1120"></path></svg>