<svg t="1581935196865" class="icon" viewBox="0 0 1024 1024" version="1.1" xmlns="http://www.w3.org/2000/svg" p-id="31192" width="128" height="128"><path d="M844.7488 261.8757h-55.614464V67.22867199999999H233.001984v194.646016h-55.613440000000004c-61.3427 0-111.2269 49.8831-111.2269 111.2259v361.48735999999997h166.83929600000002v222.45273600000002h556.1333760000001V734.587904h166.84032000000002V373.101568C955.9747 311.7578 906.0905 261.8757 844.7488 261.8757zM288.6154 122.8421h444.906496v139.032576H288.615424V122.842112zM733.5219 901.4272H288.615424V651.167744h444.906496V901.4272zM900.3602 678.9745H789.1343360000001v-83.419136H233.001984v83.419136H121.775104V373.101568c0-30.6575 24.9549-55.6134 55.6134-55.6134h667.360256c30.6565 0 55.6124 24.9559 55.6124 55.6134V678.9744639999999zM511.0671 400.9073H260.808704c-15.3702 0-27.8067 12.4375-27.8067 27.8067 0 15.3692 12.4375 27.8067 27.8067 27.8067h250.259456c15.3692 0 27.8067-12.4375 27.8067-27.8067C538.8749 413.3448 526.4364 400.9073 511.0671 400.9073z" p-id="31193" fill="#d91e05"></path></svg>