<svg t="1581065014136" class="icon" viewBox="0 0 1024 1024" version="1.1" xmlns="http://www.w3.org/2000/svg" p-id="1808" width="128" height="128"><path d="M935.227 544.046H89.536c-13.748 0-24.873-14.275-24.873-31.879 0-17.606 11.125-31.88 24.873-31.88h845.691c13.748 0 24.874 14.274 24.874 31.88 0 17.604-11.126 31.879-24.874 31.879z m-70.62-358.239c0-13.736-11.126-24.873-24.874-24.873H671.621V98.188h205.986c27.473 0 49.746 22.274 49.746 49.747V352.92h-62.746V185.807z m-705.451 0V352.92H99.409V147.934c0-27.472 22.274-49.747 49.747-49.747h198.986v62.747H184.029c-13.748 0-24.873 11.137-24.873 24.873z m0 652.705c0 13.736 11.125 24.874 24.873 24.874h164.113v64.746H148.156c-27.472 0-49.747-22.274-49.747-49.746V667.399h60.747v171.113z m705.451 0V667.399h62.746v210.986c0 27.472-22.273 49.746-49.746 49.746H671.621v-64.746h168.112c13.748 0.001 24.874-11.137 24.874-24.873z" p-id="1809"></path></svg>