<svg t="1580976765942" class="icon" viewBox="0 0 1024 1024" version="1.1" xmlns="http://www.w3.org/2000/svg" p-id="2804" width="128" height="128"><path d="M877.707636 0H146.292364A146.292364 146.292364 0 0 0 0 146.292364v731.415272A146.292364 146.292364 0 0 0 146.292364 1024h731.415272A146.292364 146.292364 0 0 0 1024 877.707636V146.292364A146.292364 146.292364 0 0 0 877.707636 0z m73.216 877.893818a72.983273 72.983273 0 0 1-73.122909 73.029818H146.478545c-19.549091 0-38.027636-7.540364-51.851636-21.364363a72.610909 72.610909 0 0 1-21.550545-51.665455V146.385455A73.402182 73.402182 0 0 1 146.478545 73.076364h731.322182c40.401455 0.046545 73.169455 32.861091 73.076364 73.262545v731.554909z m-118.737454-548.770909h-292.631273a36.538182 36.538182 0 0 0 0 73.076364h292.631273a36.538182 36.538182 0 0 0 0-73.076364z m0 292.724364h-292.631273a36.538182 36.538182 0 0 0 0 73.076363h292.631273a36.538182 36.538182 0 0 0 0-73.076363zM320.093091 530.432a128 128 0 1 0 0 256 128 128 0 0 0 0-256z m38.865454 166.865455a54.923636 54.923636 0 1 1 16.104728-38.865455c0 14.568727-5.771636 28.578909-16.104728 38.865455z m45.056-430.452364L283.554909 387.258182 236.218182 339.968a36.538182 36.538182 0 0 0-51.665455 51.665455l73.122909 73.169454a36.538182 36.538182 0 0 0 51.665455 0L455.68 318.510545a36.538182 36.538182 0 0 0-51.665455-51.665454z" p-id="2805"></path></svg>