<svg t="1582293023439" class="icon" viewBox="0 0 1024 1024" version="1.1" xmlns="http://www.w3.org/2000/svg" p-id="35428" width="128" height="128"><path d="M502.938 470.289c0.968 0.541 1.935 0.967 3.109 1.509l0.967 0.207c5.25 1.186 10.189 0.426 15.014-1.716l0.207-0.426 5.688-2.142 0.54-0.219h0.427c38.81-12.112 70.228-31.407 95.845-56.608 27.666-27.125 48.572-60.893 62.826-97.987 3.868-10.512-0.956-21.99-11.363-25.743-10.499-4.283-22.186 0.967-26.157 11.375-12.653 31.626-30.015 60.673-53.604 83.837-20.908 20.367-46.858 36.564-79.232 46.535l-0.968 0.53-2.36 0.426-1.934 0.967-1.819-0.967-1.393-0.426-1.923-0.53c-31.96-9.971-58.324-26.168-79.023-46.535-23.799-23.164-41.171-52.211-53.708-83.837-3.869-10.408-15.761-15.658-25.731-11.375-10.513 3.753-15.232 15.231-11.479 25.743 14.368 37.095 34.734 70.862 62.826 97.987 25.202 25.201 57.149 44.497 95.639 56.608h0.321l0.645 0.219 5.25 2.142 1.39 0.426z" fill="#bbbdbc" p-id="35429"></path><path d="M820.085 880.92h-28.091c-4.939-102.281-28.092-179.37-61.651-237.154l-0.426-1.186c-35.172-60.466-81.812-99.921-130.8-124.04 48.988-24.443 95.628-63.47 130.8-123.936l0.426-1.083c34.734-60.247 58.542-141.621 62.181-250.556h27.562c18.756 0 33.549-14.689 33.549-33.341 0-18.444-14.793-33.238-33.549-33.238H203.927c-18.549 0-33.561 14.794-33.561 33.238 0 18.651 15.012 33.341 33.561 33.341h27.653c3.972 108.935 27.343 190.309 62.077 250.556l0.645 1.083c35.276 60.466 81.697 99.493 130.915 123.936-49.218 24.119-95.639 63.574-130.915 124.04l-0.645 1.186c-33.341 57.784-56.39 134.873-61.433 237.154h-28.298c-18.549 0-33.561 14.795-33.561 32.813 0 19.077 15.012 33.882 33.561 33.882h616.158c18.756 0 33.549-14.805 33.549-33.882 0.001-18.018-14.792-32.813-33.548-32.813zM287.867 767.703c10.085-40.952 23.809-75.156 40.536-103.675l0.426-1.496c40.422-69.482 97.987-106.575 156.53-124.697l2.36-1.394h0.529c1.187-0.425 2.36-0.967 3.326-1.818l0.428-0.541 1.507-0.968 0.209-0.426 1.391-1.497 0.221-0.438c0.966-0.955 1.495-2.141 2.463-3.315v-0.541c0.864-1.392 1.393-3.005 1.393-4.707l0.219-0.439v-1.495l0.219-1.187v-0.955l-0.219-1.187v-0.967l-0.219-0.853c0-1.715-0.528-3.431-1.393-4.823v-0.426c-0.968-1.509-1.497-2.477-2.463-3.327l-0.221-0.749-1.391-1.186h-0.209l-1.507-1.393-0.428-0.53c-0.966-0.645-2.14-1.394-3.326-2.153l-0.529-0.207-2.36-0.967c-58.543-17.58-116.108-55.216-156.53-125.122l-0.426-0.53c-31.418-54.894-52.866-129.844-56.724-230.731H752.32c-3.327 100.887-24.764 175.837-56.608 230.731l-0.529 0.53c-40.215 69.906-97.998 107.542-156.001 125.122l-2.901 0.967-0.528 0.207c-1.187 0.76-2.142 1.509-3.327 2.153l-0.428 0.53-1.393 1.393-1.715 1.186-0.218 0.749c-0.749 0.851-1.498 1.818-1.923 3.327l-0.438 0.426c-0.53 1.393-0.956 3.108-1.497 4.823v7.083c0.541 1.702 0.967 3.315 1.497 4.707l0.438 0.541c0.425 1.175 1.174 2.36 1.923 3.315l0.218 0.438 1.715 1.497v0.426l1.393 0.968 0.428 0.541c0.967 0.852 2.141 1.394 3.327 1.818h0.528l2.901 1.394c58.003 18.122 115.786 55.215 156.001 124.697l0.529 1.496c16.831 28.519 30.452 106.253 40.422 146.675-22.843-30.015-50.496-54.25-81.373-72.05-43.75-24.982-93.277-37.841-143.025-37.841-49.217 0-98.746 12.858-142.703 38.06-30.232 17.581-55.339 33.762-82.165 59.831l-7 12 7.999-43zM276.504 884.92c29.097-66.845 61.87-81.827 112.688-111.313 37.416-21.874 79.979-32.812 122.543-32.812 43.104 0 85.449 10.938 123.084 32.812 50.818 29.486 64.822 39.542 112.678 107.313l-470.993 4z" fill="#bbbdbc" p-id="35430"></path><path d="M512 652c19.054 0 34.5-16.342 34.5-36.5S531.054 553 512 553s-34.5 42.342-34.5 62.5S492.946 652 512 652z" fill="#bbbdbc" p-id="35431"></path></svg>